<mxfile host="app.diagrams.net" modified="2024-05-21T16:19:05.904Z" agent="Mozilla/5.0 (Windows NT 10.0; Win64; x64) AppleWebKit/537.36 (KHTML, like Gecko) Chrome/123.0.0.0 Safari/537.36 OPR/109.0.0.0" etag="IyA4u5Z4TR3E09vWDiD0" version="24.4.4" type="device">
  <diagram name="ImplantationDiagram" id="G7lArYx0Al7g7JyH_oe9">
    <mxGraphModel dx="2033" dy="804" grid="1" gridSize="10" guides="1" tooltips="1" connect="1" arrows="1" fold="1" page="1" pageScale="1" pageWidth="827" pageHeight="1169" math="0" shadow="0">
      <root>
        <mxCell id="0" />
        <mxCell id="1" parent="0" />
        <mxCell id="rGaJhUyWJUeSYIYUAab--1" value=":Crawler" style="verticalAlign=top;align=left;spacingTop=8;spacingLeft=2;spacingRight=12;shape=cube;size=10;direction=south;fontStyle=4;html=1;whiteSpace=wrap;" parent="1" vertex="1">
          <mxGeometry x="120" y="120" width="560" height="300" as="geometry" />
        </mxCell>
        <mxCell id="rGaJhUyWJUeSYIYUAab--2" value="Crawler.java" style="shape=module;align=left;spacingLeft=20;align=center;verticalAlign=top;whiteSpace=wrap;html=1;" parent="1" vertex="1">
          <mxGeometry x="350" y="250" width="100" height="50" as="geometry" />
        </mxCell>
        <mxCell id="rGaJhUyWJUeSYIYUAab--3" value="DNS.java" style="shape=module;align=left;spacingLeft=20;align=center;verticalAlign=top;whiteSpace=wrap;html=1;" parent="1" vertex="1">
          <mxGeometry x="510" y="250" width="100" height="50" as="geometry" />
        </mxCell>
        <mxCell id="rGaJhUyWJUeSYIYUAab--4" value="Usuario.java" style="shape=module;align=left;spacingLeft=20;align=center;verticalAlign=top;whiteSpace=wrap;html=1;" parent="1" vertex="1">
          <mxGeometry x="350" y="160" width="100" height="50" as="geometry" />
        </mxCell>
        <mxCell id="rGaJhUyWJUeSYIYUAab--5" value="Cache.java" style="shape=module;align=left;spacingLeft=20;align=center;verticalAlign=top;whiteSpace=wrap;html=1;" parent="1" vertex="1">
          <mxGeometry x="180" y="250" width="100" height="50" as="geometry" />
        </mxCell>
        <mxCell id="rGaJhUyWJUeSYIYUAab--6" value="Fetcher.java" style="shape=module;align=left;spacingLeft=20;align=center;verticalAlign=top;whiteSpace=wrap;html=1;" parent="1" vertex="1">
          <mxGeometry x="350" y="330" width="100" height="50" as="geometry" />
        </mxCell>
      </root>
    </mxGraphModel>
  </diagram>
</mxfile>
